<?xml version="1.0" standalone="no"?>
<!DOCTYPE svg PUBLIC "-//W3C//DTD SVG 20010904//EN"
 "http://www.w3.org/TR/2001/REC-SVG-20010904/DTD/svg10.dtd">
<svg version="1.0" xmlns="http://www.w3.org/2000/svg"
 width="1000.000000pt" height="1000.000000pt" viewBox="0 0 1000.000000 1000.000000"
 preserveAspectRatio="xMidYMid meet">

<g transform="translate(0.000000,1000.000000) scale(0.100000,-0.100000)"
fill="#000" stroke="none">
<path d="M3376 8429 c-233 -25 -443 -104 -597 -227 -225 -178 -355 -453 -388
-822 -6 -63 -11 -231 -11 -372 l0 -258 -214 0 c-123 0 -226 -4 -243 -10 -47
-17 -53 -43 -53 -240 0 -175 1 -180 24 -207 l24 -28 231 -3 231 -3 0 -1305 0
-1304 -204 0 c-210 0 -258 -7 -276 -40 -6 -11 -10 -105 -10 -213 0 -184 1
-195 21 -213 20 -18 50 -19 889 -19 839 0 869 1 889 19 20 18 21 29 21 216 0
180 -2 200 -19 221 l-19 24 -346 3 -346 3 0 1304 0 1305 474 0 c488 0 526 3
546 40 13 24 13 386 0 410 -20 37 -58 40 -548 40 l-474 0 5 303 c6 330 14 393
68 522 94 226 285 345 553 345 59 0 127 -6 161 -15 71 -19 177 -67 222 -101
80 -61 114 -50 205 67 164 212 164 210 96 276 -236 225 -544 321 -912 282z"/>
<path d="M5921 6790 c-654 -69 -1141 -467 -1350 -1106 -76 -233 -105 -433
-105 -724 0 -303 31 -502 116 -750 91 -264 215 -468 398 -651 237 -238 509
-373 865 -430 119 -19 400 -17 510 5 403 77 713 300 892 641 l42 80 1 -455 c0
-250 -5 -495 -10 -545 -34 -296 -169 -538 -380 -682 -220 -149 -557 -220 -923
-194 -361 27 -647 124 -887 302 -154 114 -155 114 -282 -66 -130 -184 -132
-188 -118 -231 30 -89 342 -296 586 -388 501 -188 1213 -191 1679 -6 499 198
783 547 887 1090 l22 115 3 1732 4 1732 219 3 c195 3 221 5 237 21 16 16 18
39 18 222 0 183 -2 206 -18 222 -16 17 -52 18 -486 21 -461 3 -468 2 -494 -18
l-27 -21 -2 -317 -3 -317 -39 70 c-83 150 -206 291 -343 393 -146 110 -370
204 -563 236 -117 20 -336 28 -449 16z m450 -515 c401 -70 713 -359 847 -785
86 -272 102 -607 42 -902 -83 -407 -315 -726 -637 -875 -225 -104 -516 -121
-758 -46 -399 125 -672 454 -777 937 -19 88 -22 132 -23 341 0 211 3 254 23
352 97 478 369 814 765 943 150 49 360 63 518 35z"/>
</g>
</svg>
